<?xml version="1.0" standalone="no"?>
<!DOCTYPE svg PUBLIC "-//W3C//DTD SVG 20010904//EN"
 "http://www.w3.org/TR/2001/REC-SVG-20010904/DTD/svg10.dtd">
<svg version="1.0" xmlns="http://www.w3.org/2000/svg"
 width="300.000000pt" height="300.000000pt" viewBox="0 0 300.000000 300.000000"
 preserveAspectRatio="xMidYMid meet">
<metadata>
Created by potrace 1.11, written by Peter Selinger 2001-2013
</metadata>
<g transform="translate(0.000000,300.000000) scale(0.100000,-0.100000)"
fill="#000000" stroke="none">
<path d="M1475 2981 c-105 -22 -125 -34 -125 -71 0 -40 23 -50 81 -35 26 7 51
15 56 18 20 12 105 21 208 22 94 0 122 -4 197 -28 316 -104 482 -420 308 -588
-54 -53 -114 -73 -221 -72 -138 0 -317 91 -512 261 -54 47 -62 47 -119 -12
-64 -64 -164 -149 -283 -240 -164 -124 -329 -291 -377 -382 -94 -177 -93 -353
3 -516 38 -65 75 -112 157 -201 66 -73 107 -136 122 -185 14 -52 -19 -98 -186
-258 -153 -146 -189 -189 -176 -212 4 -6 84 -38 177 -70 358 -125 508 -192
580 -260 36 -34 65 -83 65 -109 0 -25 19 -43 45 -43 15 0 106 85 288 268 288
289 299 301 419 442 102 120 131 179 134 280 6 157 -63 278 -278 491 -149 147
-163 172 -134 225 26 49 61 81 226 214 145 116 192 166 223 242 39 93 51 247
27 349 -51 220 -275 418 -535 472 -95 20 -271 19 -370 -2z m-177 -913 c264
-157 393 -216 506 -233 21 -3 42 -8 47 -11 25 -15 -4 -53 -143 -191 -253 -251
-309 -303 -325 -303 -9 0 -41 21 -72 47 -185 157 -356 331 -385 394 -27 58
-28 121 -3 179 38 89 158 200 215 200 13 0 85 -37 160 -82z m254 -832 c82 -43
265 -202 341 -297 55 -68 90 -153 90 -216 0 -101 -104 -230 -199 -247 -27 -5
-179 54 -404 157 -36 16 -92 42 -126 57 -195 89 -223 103 -228 123 -4 15 33
58 172 199 175 177 216 212 270 228 40 12 54 11 84 -4z"/>
</g>
</svg>
